<svg width="78" height="78" viewBox="0 0 78 78" fill="none" xmlns="http://www.w3.org/2000/svg">
<g clip-path="url(#clip0_489_3481)">
<path fill-rule="evenodd" clip-rule="evenodd" d="M37.9612 33.4704C38.0427 33.7058 38.0831 33.9644 38.1233 34.2226C38.4138 35.5741 38.7726 37.1386 38.6042 38.5438C38.3671 40.3958 37.552 41.5293 36.4435 42.1546C34.8825 43.0335 32.63 42.8083 30.745 41.806C28.8682 40.8179 27.3366 39.1081 27.0441 37.1874C26.8322 35.8777 27.2012 34.4427 28.464 33.0475C29.8865 31.4576 31.8325 30.9628 33.8887 31.1304C34.6803 31.1817 35.435 31.3577 36.2167 31.5803C35.9552 30.8446 35.6901 30.1023 35.4195 29.3506C34.459 26.9328 33.1878 24.5424 31.7679 22.3658C29.9292 19.4639 27.6748 16.9738 24.9456 14.8864C24.7173 14.6796 24.6721 14.3182 24.8567 14.0723C25.0415 13.8268 25.3969 13.7828 25.6659 13.966C28.4984 16.138 30.8583 18.7163 32.7644 21.735C34.1812 24.0004 35.5321 26.4351 36.4892 28.9415C36.8746 29.9861 37.25 31.0131 37.5783 32.0531C39.2158 32.721 40.7268 33.641 41.8357 34.5248C49.108 40.5214 51.3381 52.9627 51.6644 62.0127C51.6819 62.3258 51.4492 62.5832 51.1302 62.5965C50.8111 62.6093 50.5557 62.3556 50.5382 62.0424C50.2178 53.2856 48.1483 41.2159 41.0996 35.4179C40.2705 34.7361 39.163 34.0436 37.9612 33.4704ZM36.6141 32.9288C36.7847 33.4127 36.913 33.9172 36.9995 34.4442C37.235 35.7006 37.617 37.1162 37.4826 38.3918C37.3085 39.7872 36.7314 40.6739 35.9102 41.1371C34.5961 41.8778 32.8036 41.601 31.2957 40.7805C29.739 39.9696 28.4082 38.6076 28.192 37.0075C28.0378 35.9862 28.3352 34.8984 29.2954 33.8275C30.4909 32.5042 32.1219 32.1243 33.7891 32.2781C34.752 32.3432 35.707 32.5832 36.6141 32.9288Z" fill="#FCA7CB"/>
<path fill-rule="evenodd" clip-rule="evenodd" d="M51.2186 62.3708C51.3395 62.1089 51.4191 61.7755 51.4986 61.4417C51.6671 60.7908 51.7805 60.1386 51.9732 59.7182C53.1082 57.1589 54.5013 54.104 56.3959 52.0119C56.5921 51.786 56.9606 51.7643 57.193 51.9784C57.4253 52.1921 57.4648 52.5432 57.2278 52.7927C55.4382 54.7839 54.1367 57.7153 53.0093 60.1934C52.8274 60.6326 52.685 61.4224 52.5223 62.0835C52.3633 62.6564 52.162 63.1564 51.8549 63.473C51.6932 63.6644 51.2787 63.7948 50.7684 63.4766C50.0656 63.0136 48.7351 61.3695 48.5931 61.2179C47.1606 59.6795 45.8512 58.3541 43.6532 58.1295C43.356 58.0861 43.1354 57.7982 43.1299 57.5058C43.1652 57.1898 43.4636 56.9523 43.7611 56.9961C46.2536 57.2595 47.8345 58.6781 49.4512 60.4411C49.5257 60.5701 50.3133 61.5572 50.9921 62.1674C51.0798 62.225 51.1315 62.3144 51.2186 62.3708Z" fill="#FCA7CB"/>
</g>
<defs>
<clipPath id="clip0_489_3481">
<rect width="56.4744" height="56.4744" fill="white" transform="matrix(0.866025 -0.5 -0.5 -0.866025 28.2363 77.1455)"/>
</clipPath>
</defs>
</svg>
