<svg width="80" height="80" viewBox="0 0 80 80" fill="none" xmlns="http://www.w3.org/2000/svg">
<g clip-path="url(#clip0_129_22885)">
<path fill-rule="evenodd" clip-rule="evenodd" d="M44.7136 41.8183C44.5065 41.6797 44.2667 41.5749 44.0271 41.4705C42.7936 40.8466 41.3714 40.1024 39.9695 39.9087C38.118 39.6679 36.8147 40.1686 35.9285 41.0822C34.6822 42.3689 34.3283 44.6048 34.8194 46.6825C35.2987 48.7486 36.5638 50.6641 38.3474 51.4344C39.5604 51.9718 41.0421 51.9791 42.7122 51.1118C44.611 50.1394 45.5835 48.3828 45.9433 46.3513C46.0946 45.5726 46.1159 44.7979 46.099 43.9854C46.7442 44.425 47.395 44.8698 48.0533 45.3224C50.1482 46.8651 52.1377 48.7013 53.8826 50.6272C56.2228 53.1423 58.0591 55.9548 59.3855 59.1244C59.5276 59.3977 59.8657 59.5332 60.1504 59.4171C60.4348 59.3006 60.5676 58.968 60.4586 58.6613C59.0767 55.3703 57.1818 52.4333 54.7457 49.8234C52.914 47.878 50.9019 45.9534 48.7206 44.3915C47.808 43.7536 46.9099 43.1299 45.9872 42.5483C45.7568 40.795 45.2505 39.0999 44.6771 37.803C40.7226 29.2469 29.2547 23.9321 20.5839 21.3195C20.2855 21.2231 19.9774 21.3828 19.8837 21.688C19.7903 21.9934 19.9709 22.3048 20.2694 22.4013C28.6581 24.9337 39.8073 29.9988 43.6264 38.2883C44.0754 39.2633 44.4641 40.5103 44.7136 41.8183ZM44.8956 43.2587C44.4707 42.9709 44.0153 42.7188 43.5276 42.5013C42.3721 41.9546 41.0998 41.2259 39.8319 41.0321C38.438 40.8464 37.4338 41.1795 36.7773 41.8562C35.7273 42.9392 35.5402 44.7433 35.9511 46.4101C36.3403 48.1217 37.32 49.7546 38.8128 50.3698C39.7615 50.7782 40.8892 50.7666 42.1687 50.1096C43.7521 49.2891 44.5335 47.808 44.8079 46.1564C44.9893 45.2085 44.9996 44.2238 44.8956 43.2587Z" fill="#FCA7CB"/>
<path fill-rule="evenodd" clip-rule="evenodd" d="M20.1242 21.6598C20.4082 21.6093 20.7509 21.6169 21.0939 21.6248C21.7663 21.627 22.4259 21.6828 22.8815 21.6031C25.645 21.1548 28.9535 20.5828 31.458 19.2812C31.7263 19.1488 31.8408 18.7979 31.6927 18.5187C31.5449 18.2398 31.2153 18.1124 30.9139 18.2783C28.5337 19.5039 25.3679 20.0188 22.6848 20.4804C22.2138 20.5448 21.4137 20.4821 20.733 20.4717C20.1385 20.4801 19.6038 20.5479 19.2196 20.7645C18.9935 20.8724 18.7621 21.2402 18.9404 21.8146C19.2098 22.6118 20.4624 24.3161 20.573 24.4919C21.6974 26.268 22.6471 27.8709 22.3064 30.0539C22.273 30.3524 22.4955 30.6388 22.7769 30.7184C23.0915 30.7644 23.397 30.5361 23.4301 30.2373C23.8079 27.7594 22.8371 25.8703 21.5421 23.8591C21.4362 23.7543 20.6814 22.7419 20.2635 21.9305C20.23 21.831 20.1567 21.7583 20.1242 21.6598Z" fill="#FCA7CB"/>
</g>
<defs>
<clipPath id="clip0_129_22885">
<rect width="56.4744" height="56.4744" fill="white" transform="translate(0 40.1396) rotate(-45.2969)"/>
</clipPath>
</defs>
</svg>
