<svg width="48" height="48" viewBox="0 0 48 48" fill="none" xmlns="http://www.w3.org/2000/svg">
<path d="M43.122 1.82861C34.7682 1.93569 28.2595 4.84615 22.95 9.01015C15.3679 6.39231 9.19616 12.2086 5.19554 16.8655C4.32416 17.8588 4.93708 19.512 6.45831 19.5462C8.76416 19.4714 10.7174 19.7317 12.4251 20.2966C12.1269 20.7 11.8315 21.1043 11.5417 21.5077C11.1911 21.9959 11.0261 22.5931 11.0763 23.1921C11.1266 23.791 11.3888 24.3524 11.8159 24.7754L13.2808 26.2403L10.8494 28.6717C10.5581 28.963 10.3944 29.3582 10.3944 29.7702C10.3944 30.1821 10.5581 30.5773 10.8494 30.8686L11.4337 31.4538C10.1719 32.0455 9.27647 33.0249 8.77524 34.3892C8.19739 35.9649 8.67001 36.4726 7.91031 38.5551C7.8359 38.7599 7.8124 38.9797 7.84185 39.1956C7.87129 39.4116 7.95279 39.6171 8.07933 39.7945C8.20587 39.9719 8.37365 40.1159 8.56821 40.214C8.76277 40.3122 8.97828 40.3615 9.19616 40.3578C11.4143 40.3578 14.0866 39.6646 15.5377 38.0105C15.934 37.5649 16.256 37.0584 16.4912 36.5105L17.1319 37.1511C17.4234 37.4419 17.8185 37.6053 18.2303 37.6053C18.6422 37.6053 19.0372 37.4419 19.3288 37.1511L21.7602 34.7197L23.2251 36.1846C23.6479 36.6125 24.2096 36.8753 24.8091 36.9257C25.4085 36.9761 26.0062 36.8109 26.4946 36.4597C26.8962 36.1708 27.2986 35.8763 27.7011 35.5791C28.2669 37.2849 28.5263 39.2345 28.4534 41.5385C28.4054 42.9415 30.0688 43.7298 31.1377 42.8068C35.7937 38.8006 41.6035 32.628 38.9977 25.0431C43.158 19.7354 46.0666 13.2305 46.1728 4.87938C46.1949 3.144 44.7392 1.78984 43.1229 1.82954L43.122 1.82861ZM37.7589 24.3582C37.4229 24.6554 35.442 27.7412 29.2879 32.6225L15.3771 18.7126C17.7632 15.7062 20.4319 12.8086 23.5131 10.3458C23.5546 10.3163 23.5962 10.2905 23.6303 10.2526C26.6811 7.83415 30.1352 5.844 34.1257 4.60523C36.477 8.34439 39.6556 11.4936 43.4165 13.8102C42.1805 17.8228 40.1866 21.2935 37.7589 24.3582ZM6.41124 18.1615C6.25247 18.2058 6.09739 17.9363 6.24139 17.7729C11.8325 11.2643 16.77 8.78954 21.6697 10.0588C18.486 12.7717 15.7463 15.9203 13.2974 19.1345C11.3312 18.4089 9.0817 18.0775 6.41124 18.1615ZM14.4974 37.0957C13.3195 38.4406 10.9722 38.9668 9.23124 38.9732C10.0205 36.78 9.60047 36.1625 10.0749 34.8665C10.5069 33.6914 11.2989 32.9169 12.4906 32.5098L15.4075 35.4268C15.2682 36.012 14.9691 36.5603 14.4974 37.0957ZM18.3503 36.1726C18.3182 36.204 18.2752 36.2215 18.2303 36.2215C18.1855 36.2215 18.1424 36.204 18.1103 36.1726C10.6611 28.7215 19.2845 37.3458 11.8279 29.8902C11.7725 29.8329 11.7725 29.7055 11.8279 29.6502L14.2592 27.2197L20.7817 33.7412L18.3503 36.1726ZM25.686 35.3335C25.464 35.492 25.1927 35.5661 24.9209 35.5424C24.6492 35.5187 24.3948 35.3988 24.2035 35.2043L12.7952 23.7969C12.6009 23.6057 12.4812 23.3514 12.4577 23.0798C12.4342 22.8082 12.5084 22.5372 12.6669 22.3154C13.2651 21.4828 13.9242 20.592 14.5205 19.8138L28.1875 33.48C27.3568 34.1169 26.5205 34.7345 25.686 35.3335ZM30.2322 41.7582C30.0808 41.8902 29.8288 41.7858 29.8352 41.5828C29.9211 38.9188 29.5888 36.672 28.8632 34.7058C32.082 32.2542 35.2343 29.5108 37.9491 26.3215C39.2119 31.2231 36.7343 36.1634 30.2322 41.7582ZM43.8069 12.4135C40.4887 10.3043 37.6624 7.50672 35.5195 4.21015C38.0104 3.57222 40.5693 3.23749 43.1405 3.21323C44.1282 3.22984 44.7974 4.00523 44.7872 4.86092C44.7627 7.40823 44.4336 9.94347 43.8069 12.4126V12.4135Z" fill="#0D0D12"/>
<path d="M25.8086 13.2342C25.22 13.8221 24.7531 14.5203 24.4345 15.2888C24.116 16.0573 23.952 16.881 23.952 17.7129C23.952 18.5449 24.116 19.3686 24.4345 20.1371C24.7531 20.9056 25.22 21.6038 25.8086 22.1917C26.3965 22.7803 27.0947 23.2472 27.8632 23.5658C28.6317 23.8843 29.4555 24.0483 30.2874 24.0483C31.1193 24.0483 31.943 23.8843 32.7115 23.5658C33.48 23.2472 34.1782 22.7803 34.7661 22.1917C35.3548 21.6038 35.8218 20.9057 36.1405 20.1372C36.4591 19.3687 36.6231 18.5449 36.6231 17.7129C36.6231 16.881 36.4591 16.0572 36.1405 15.2887C35.8218 14.5202 35.3548 13.822 34.7661 13.2342C34.1782 12.6456 33.48 12.1787 32.7115 11.8601C31.943 11.5415 31.1193 11.3776 30.2874 11.3776C29.4555 11.3776 28.6317 11.5415 27.8632 11.8601C27.0947 12.1787 26.3965 12.6456 25.8086 13.2342ZM33.7867 21.2123C33.3273 21.6721 32.7817 22.0369 32.1811 22.2858C31.5806 22.5347 30.937 22.6628 30.2869 22.6628C29.6369 22.6628 28.9932 22.5347 28.3927 22.2858C27.7921 22.0369 27.2465 21.6721 26.7871 21.2123C25.8604 20.2833 25.34 19.0247 25.34 17.7125C25.34 16.4003 25.8604 15.1417 26.7871 14.2126C27.7159 13.2855 28.9746 12.7649 30.2869 12.7649C31.5992 12.7649 32.8579 13.2855 33.7867 14.2126C34.2467 14.6721 34.6116 15.2176 34.8605 15.8182C35.1094 16.4187 35.2376 17.0624 35.2376 17.7125C35.2376 18.3626 35.1094 19.0063 34.8605 19.6068C34.6116 20.2073 34.2467 20.7529 33.7867 21.2123ZM2.03105 35.3059C2.09535 35.3702 2.17169 35.4212 2.25571 35.456C2.33973 35.4909 2.42979 35.5088 2.52075 35.5088C2.6117 35.5088 2.70176 35.4909 2.78578 35.456C2.86981 35.4212 2.94615 35.3702 3.01044 35.3059L7.61752 30.6988C7.68553 30.6354 7.74009 30.559 7.77793 30.4741C7.81577 30.3891 7.83611 30.2975 7.83775 30.2045C7.83939 30.1115 7.82229 30.0192 7.78748 29.933C7.75266 29.8468 7.70083 29.7685 7.63509 29.7028C7.56935 29.637 7.49104 29.5852 7.40484 29.5504C7.31863 29.5155 7.2263 29.4984 7.13334 29.5001C7.04038 29.5017 6.94871 29.5221 6.86379 29.5599C6.77887 29.5978 6.70243 29.6523 6.63905 29.7203L2.03105 34.3256C1.96672 34.3898 1.91569 34.4662 1.88087 34.5502C1.84605 34.6342 1.82812 34.7243 1.82812 34.8152C1.82812 34.9062 1.84605 34.9963 1.88087 35.0803C1.91569 35.1643 1.96672 35.2416 2.03105 35.3059ZM3.40182 27.5382C3.46612 27.6025 3.54245 27.6535 3.62648 27.6884C3.7105 27.7232 3.80056 27.7411 3.89152 27.7411C3.98247 27.7411 4.07253 27.7232 4.15655 27.6884C4.24058 27.6535 4.31692 27.6025 4.38121 27.5382L7.61752 24.3019C7.68553 24.2385 7.74009 24.1621 7.77793 24.0771C7.81577 23.9922 7.83611 23.9005 7.83775 23.8076C7.83939 23.7146 7.82229 23.6223 7.78748 23.5361C7.75266 23.4499 7.70083 23.3716 7.63509 23.3058C7.56935 23.2401 7.49104 23.1883 7.40484 23.1534C7.31863 23.1186 7.2263 23.1015 7.13334 23.1032C7.04038 23.1048 6.94871 23.1252 6.86379 23.163C6.77887 23.2008 6.70243 23.2554 6.63905 23.3234L3.40182 26.5588C3.33749 26.6231 3.28645 26.6994 3.25164 26.7834C3.21682 26.8675 3.19889 26.9575 3.19889 27.0485C3.19889 27.1394 3.21682 27.2295 3.25164 27.3135C3.28645 27.3975 3.33749 27.4739 3.40182 27.5382ZM13.6738 45.9692L18.2809 41.3622C18.3471 41.2983 18.3998 41.222 18.4362 41.1375C18.4725 41.0531 18.4916 40.9622 18.4925 40.8703C18.4933 40.7784 18.4758 40.6872 18.4411 40.6021C18.4063 40.517 18.3549 40.4397 18.2899 40.3747C18.225 40.3096 18.1477 40.2582 18.0626 40.2233C17.9776 40.1885 17.8864 40.1709 17.7945 40.1717C17.7026 40.1724 17.6117 40.1915 17.5272 40.2277C17.4428 40.264 17.3663 40.3167 17.3024 40.3828L12.6944 44.9899C12.6264 45.0532 12.5719 45.1297 12.534 45.2146C12.4962 45.2995 12.4758 45.3912 12.4742 45.4841C12.4726 45.5771 12.4897 45.6694 12.5245 45.7556C12.5593 45.8418 12.6111 45.9202 12.6769 45.9859C12.7426 46.0516 12.8209 46.1035 12.9071 46.1383C12.9933 46.1731 13.0857 46.1902 13.1786 46.1886C13.2716 46.1869 13.3632 46.1666 13.4482 46.1287C13.5331 46.0909 13.6095 46.0363 13.6729 45.9683L13.6738 45.9692ZM21.4406 44.5976L24.6778 41.3622C24.744 41.2983 24.7968 41.222 24.8331 41.1375C24.8694 41.0531 24.8885 40.9622 24.8894 40.8703C24.8902 40.7784 24.8727 40.6872 24.838 40.6021C24.8032 40.517 24.7518 40.4397 24.6869 40.3747C24.6219 40.3096 24.5446 40.2582 24.4596 40.2233C24.3745 40.1885 24.2833 40.1709 24.1914 40.1717C24.0995 40.1724 24.0086 40.1915 23.9242 40.2277C23.8397 40.264 23.7633 40.3167 23.6994 40.3828L20.4621 43.6191C20.3941 43.6825 20.3396 43.7589 20.3017 43.8438C20.2639 43.9288 20.2435 44.0204 20.2419 44.1134C20.2403 44.2063 20.2574 44.2987 20.2922 44.3849C20.327 44.4711 20.3788 44.5494 20.4446 44.6151C20.5103 44.6809 20.5886 44.7327 20.6748 44.7675C20.761 44.8023 20.8533 44.8194 20.9463 44.8178C21.0393 44.8162 21.1309 44.7958 21.2159 44.758C21.3008 44.7201 21.3772 44.6656 21.4406 44.5976Z" fill="#0D0D12"/>
</svg>
