<svg width="48" height="48" viewBox="0 0 48 48" fill="none" xmlns="http://www.w3.org/2000/svg">
<g clip-path="url(#clip0_489_6442)">
<path d="M42.4724 33.874C42.3437 33.8206 42.2021 33.8067 42.0654 33.8338C41.9287 33.861 41.8032 33.9281 41.7046 34.0266L34.0053 41.7259C33.9067 41.8244 33.8396 41.95 33.8124 42.0867C33.7852 42.2234 33.7991 42.3651 33.8525 42.4938C33.9058 42.6226 33.9962 42.7326 34.1121 42.81C34.228 42.8874 34.3642 42.9287 34.5036 42.9287H42.2029C42.2954 42.9287 42.3871 42.9104 42.4725 42.875C42.558 42.8396 42.6357 42.7877 42.7011 42.7223C42.7665 42.6569 42.8184 42.5792 42.8538 42.4937C42.8892 42.4083 42.9075 42.3166 42.9074 42.2241V34.5248C42.9074 34.3855 42.866 34.2493 42.7886 34.1334C42.7112 34.0176 42.6012 33.9273 42.4724 33.874ZM36.2042 41.5197L41.4982 36.2257V41.5197H36.2042Z" fill="#0D0D12"/>
<path d="M47.5651 22.5813C47.4364 22.528 47.2947 22.514 47.158 22.5411C47.0214 22.5683 46.8958 22.6354 46.7973 22.7339L44.6872 24.844V10.4973C44.6872 10.3105 44.613 10.1313 44.4809 9.99913C44.3488 9.86701 44.1696 9.79278 43.9827 9.79278H38.5695L40.5345 7.82778L40.5353 7.82684L42.4287 5.93347C42.8344 5.52781 43.0578 4.98819 43.0578 4.41444C43.0578 3.84069 42.8344 3.30125 42.4287 2.8954L40.2393 0.705967C39.8336 0.300311 39.294 0.0769043 38.7202 0.0769043C38.1465 0.0769043 37.607 0.300311 37.2012 0.705967L35.3069 2.60028L33.0179 4.88928L28.1145 9.79269H6.24563V2.82284C6.24563 2.73032 6.2274 2.63871 6.192 2.55323C6.15659 2.46775 6.10469 2.39008 6.03927 2.32466C5.97385 2.25924 5.89618 2.20735 5.81071 2.17194C5.72523 2.13653 5.63361 2.11831 5.54109 2.11831C2.48578 2.1185 0 4.60409 0 7.65959V37.5833C0 37.6353 0.006 37.6859 0.0166875 37.7347C0.114 39.0312 0.674906 40.2357 1.61231 41.1502C2.61431 42.1274 3.93703 42.6657 5.33691 42.6657H26.8655L22.8109 46.7202C22.7124 46.8188 22.6453 46.9443 22.6182 47.081C22.591 47.2176 22.605 47.3593 22.6583 47.488C22.7116 47.6167 22.8019 47.7267 22.9177 47.8042C23.0336 47.8816 23.1697 47.9229 23.3091 47.923H47.2955C47.4823 47.923 47.6615 47.8487 47.7936 47.7166C47.9258 47.5845 48 47.4053 48 47.2184V23.2322C48 23.0929 47.9586 22.9567 47.8812 22.8408C47.8038 22.725 47.6938 22.6347 47.5651 22.5813ZM38.1978 1.70244C38.4858 1.41425 38.955 1.41425 39.243 1.70244L41.4325 3.89197C41.7207 4.18006 41.7207 4.64909 41.4325 4.93728L40.0365 6.3334L36.8016 3.09856L38.1978 1.70244ZM35.8052 4.09494L39.04 7.32969L37.7473 8.6224L34.5127 5.38765L35.8052 4.09494ZM46.5911 31.1487H45.2913C45.1988 31.1486 45.1071 31.1669 45.0217 31.2023C44.9362 31.2377 44.8585 31.2896 44.7931 31.355C44.7276 31.4204 44.6758 31.4981 44.6404 31.5836C44.605 31.669 44.5867 31.7607 44.5868 31.8532C44.5867 31.9457 44.605 32.0373 44.6404 32.1228C44.6758 32.2083 44.7276 32.286 44.7931 32.3514C44.8585 32.4168 44.9362 32.4687 45.0217 32.5041C45.1071 32.5395 45.1988 32.5577 45.2913 32.5577H46.5911V34.6808H45.2913C44.9021 34.6808 44.5868 34.9962 44.5868 35.3853C44.5868 35.7745 44.9021 36.0898 45.2913 36.0898H46.5911V38.2128H45.2913C45.1988 38.2128 45.1071 38.231 45.0217 38.2664C44.9362 38.3018 44.8585 38.3537 44.7931 38.4191C44.7276 38.4846 44.6758 38.5622 44.6404 38.6477C44.605 38.7332 44.5867 38.8248 44.5868 38.9173C44.5867 39.0099 44.605 39.1015 44.6404 39.187C44.6758 39.2724 44.7276 39.3501 44.7931 39.4155C44.8585 39.481 44.9362 39.5329 45.0217 39.5683C45.1071 39.6037 45.1988 39.6219 45.2913 39.6219H46.5911V41.7449H45.2913C45.1044 41.7449 44.9252 41.8192 44.7931 41.9513C44.661 42.0834 44.5868 42.2626 44.5868 42.4495C44.5868 42.6363 44.661 42.8155 44.7931 42.9476C44.9252 43.0798 45.1044 43.154 45.2913 43.154H46.5911V46.5142H25.0099L32.1263 39.3979C32.1917 39.3325 32.2436 39.2548 32.279 39.1693C32.3144 39.0839 32.3326 38.9922 32.3326 38.8997C32.3326 38.8072 32.3144 38.7156 32.279 38.6301C32.2436 38.5446 32.1917 38.4669 32.1263 38.4015C32.0952 38.3707 32.0614 38.3428 32.0252 38.3182C31.8896 38.2255 31.7259 38.1832 31.5625 38.1984C31.399 38.2136 31.2459 38.2855 31.1298 38.4015L28.2745 41.2568H5.337C3.20025 41.2568 1.48012 39.5886 1.41244 37.4557C1.41641 37.3226 1.4268 37.1899 1.44356 37.0578L1.44384 37.0556C1.45172 36.9932 1.46119 36.9312 1.47197 36.8695L1.47572 36.8484C1.50126 36.7063 1.53434 36.5656 1.57481 36.4271C1.58513 36.3912 1.59581 36.3555 1.60716 36.3202C1.6185 36.2848 1.63059 36.2499 1.64287 36.2149C1.65141 36.1904 1.65984 36.166 1.66903 36.1417C1.68619 36.0956 1.70437 36.0499 1.72312 36.0046C1.72847 35.9916 1.73372 35.9784 1.73925 35.9653C1.76334 35.9091 1.78838 35.8535 1.81481 35.7986L1.81809 35.7915C2.36916 34.6512 3.429 33.8009 4.70091 33.5371L4.71159 33.5348C4.76991 33.5229 4.82878 33.5127 4.88803 33.5032C4.89787 33.5016 4.90772 33.4996 4.91775 33.4981C4.97152 33.4902 5.02543 33.4833 5.07947 33.4775C5.09466 33.4758 5.10975 33.4735 5.12503 33.472C5.17748 33.467 5.23002 33.463 5.28263 33.46C5.29931 33.4589 5.316 33.4572 5.33269 33.4563C5.4021 33.4528 5.47159 33.4511 5.54109 33.4511C5.63361 33.4511 5.72523 33.4328 5.81071 33.3974C5.89618 33.362 5.97385 33.3101 6.03927 33.2447C6.10469 33.1793 6.15659 33.1016 6.192 33.0161C6.2274 32.9307 6.24563 32.839 6.24563 32.7465V27.6382C6.24563 27.4513 6.1714 27.2721 6.03927 27.14C5.90715 27.0079 5.72795 26.9337 5.54109 26.9337C5.35424 26.9337 5.17504 27.0079 5.04291 27.14C4.91079 27.2721 4.83656 27.4513 4.83656 27.6382V32.0863C3.64688 32.2368 2.54259 32.7674 1.67184 33.6177C1.5811 33.7071 1.49339 33.7994 1.40887 33.8947V7.65959C1.40887 5.62137 2.89256 3.9229 4.83647 3.58747V24.8202C4.83948 25.0051 4.91504 25.1814 5.04683 25.311C5.17863 25.4407 5.35611 25.5134 5.541 25.5134C5.72589 25.5134 5.90337 25.4407 6.03516 25.311C6.16696 25.1814 6.24252 25.0051 6.24553 24.8202V11.2018H26.7055L22.8108 15.0966C22.6803 15.2291 22.6075 15.4077 22.6082 15.5936C22.6089 15.7795 22.6831 15.9576 22.8146 16.0891C22.946 16.2206 23.1241 16.2947 23.31 16.2955C23.4959 16.2962 23.6746 16.2234 23.8071 16.093L28.9045 10.9955L28.905 10.995L33.5161 6.38394L36.7507 9.61878L36.3713 9.99828L36.3703 9.99912L22.1646 24.2051L18.9298 20.9703L21.7299 18.1702C21.8604 18.0377 21.9332 17.8591 21.9325 17.6732C21.9318 17.4872 21.8576 17.3091 21.7262 17.1777C21.5947 17.0462 21.4166 16.972 21.2307 16.9713C21.0448 16.9706 20.8661 17.0434 20.7337 17.1738L17.4352 20.4721C17.4178 20.4897 17.4012 20.5082 17.3857 20.5275C17.3805 20.5339 17.3759 20.5407 17.371 20.5474C17.3611 20.5606 17.3513 20.5739 17.3422 20.5878C17.3371 20.5959 17.3324 20.6041 17.3275 20.6125C17.3145 20.634 17.3029 20.6564 17.2927 20.6794C17.2865 20.6932 17.2807 20.7072 17.2753 20.7213C17.2734 20.7263 17.271 20.731 17.2692 20.7359L15.8966 24.6242L14.9608 27.2754C14.9487 27.3103 14.9394 27.3461 14.9329 27.3825H12.5899C12.4974 27.3825 12.4057 27.4008 12.3203 27.4362C12.2348 27.4716 12.1571 27.5235 12.0917 27.5889C12.0263 27.6543 11.9744 27.732 11.939 27.8174C11.9036 27.9029 11.8853 27.9945 11.8853 28.0871C11.8853 28.1796 11.9036 28.2712 11.939 28.3567C11.9744 28.4421 12.0263 28.5198 12.0917 28.5852C12.1571 28.6507 12.2348 28.7026 12.3203 28.738C12.4057 28.7734 12.4974 28.7916 12.5899 28.7916H32.1006C32.1931 28.7916 32.2847 28.7734 32.3702 28.738C32.4557 28.7026 32.5333 28.6507 32.5988 28.5853C32.6642 28.5198 32.7161 28.4422 32.7515 28.3567C32.7869 28.2712 32.8051 28.1796 32.8051 28.0871C32.8051 27.9945 32.7869 27.9029 32.7515 27.8174C32.7161 27.7319 32.6642 27.6543 32.5988 27.5889C32.5333 27.5234 32.4557 27.4715 32.3702 27.4361C32.2847 27.4007 32.1931 27.3825 32.1006 27.3825H18.1025L22.399 25.8658C22.4026 25.8645 22.406 25.8627 22.4095 25.8614C22.4262 25.8552 22.4426 25.8483 22.4588 25.8409C22.4653 25.8379 22.4718 25.8351 22.4781 25.832C22.4949 25.8236 22.5115 25.8143 22.5278 25.8043C22.5331 25.8012 22.5385 25.7982 22.5437 25.795C22.5607 25.7841 22.5772 25.7722 22.5934 25.7596C22.5974 25.7565 22.6016 25.7538 22.6056 25.7506C22.6252 25.7349 22.6444 25.7179 22.6626 25.6997L37.1604 11.2019H43.2781V26.2531L33.2003 36.331C33.1349 36.3964 33.083 36.4741 33.0476 36.5595C33.0122 36.645 32.994 36.7366 32.994 36.8292C32.994 36.9217 33.0122 37.0133 33.0476 37.0988C33.083 37.1842 33.1349 37.2619 33.2003 37.3273C33.2658 37.3928 33.3434 37.4447 33.4289 37.4801C33.5144 37.5155 33.606 37.5337 33.6985 37.5337C33.7911 37.5337 33.8827 37.5155 33.9681 37.4801C34.0536 37.4447 34.1313 37.3928 34.1967 37.3273L34.197 37.3271L46.5911 24.9328V31.1487ZM20.876 24.909L18.8579 25.6214L17.5133 24.2769L18.2257 22.2588L20.876 24.909Z" fill="#0D0D12"/>
</g>
<defs>
<clipPath id="clip0_489_6442">
<rect width="48" height="48" fill="white"/>
</clipPath>
</defs>
</svg>
