<svg width="132" height="26" viewBox="0 0 132 26" fill="none" xmlns="http://www.w3.org/2000/svg">
<g clip-path="url(#clip0_755_32381)">
<path fill-rule="evenodd" clip-rule="evenodd" d="M92.9338 12.8601C92.6823 11.8716 92.2387 10.9423 91.6284 10.1252C90.9756 9.28318 90.3751 8.86544 89.7877 8.86544C89.528 8.88003 89.2773 8.96584 89.0632 9.11347C88.7007 9.35712 88.352 9.62079 88.0188 9.90326C87.2813 10.5103 86.5959 11.1173 85.9758 11.7048C85.3558 12.2922 84.6704 13.0102 83.8871 13.8391L83.1887 14.5832L83.1365 9.6487C83.1365 7.35114 83.0582 5.60186 83.006 4.4596C82.9904 3.61337 82.8743 2.77199 82.66 1.95317C82.5206 1.47815 82.2489 1.05257 81.8768 0.726065C81.7521 0.599763 81.6117 0.490071 81.459 0.399707C81.3186 0.313671 81.1725 0.237342 81.0217 0.171256C80.821 0.0682753 80.6002 0.010259 80.3748 0.00124138C80.1493 -0.00777626 79.9246 0.0324212 79.7163 0.119038C79.1067 0.432552 78.5442 0.830253 78.0453 1.30046C77.6602 1.62029 77.3339 1.90748 77.0728 2.15551C76.6485 2.55367 76.5832 2.64505 76.5832 2.80823C76.5832 3.09543 76.8182 3.23902 77.2882 3.23902H77.5101C77.7092 3.20385 77.9141 3.22186 78.1041 3.29124C78.3327 3.3937 78.5389 3.54007 78.7111 3.72203C78.9893 4.0258 79.1571 4.41436 79.1876 4.82513C79.3589 5.97684 79.444 7.13973 79.4421 8.3041C79.4813 9.98811 79.5009 12.5598 79.5009 15.9474C79.5009 24.1716 79.5009 24.4327 79.8795 24.4327H80.01C80.0702 24.4326 80.13 24.4216 80.1862 24.4001C80.2638 24.3793 80.3384 24.3486 80.4082 24.3087C80.4496 24.3288 80.4889 24.3528 80.5257 24.3805C80.8232 24.5508 81.1412 24.6824 81.4721 24.7721C81.9497 24.8788 82.4384 24.927 82.9277 24.9157H83.4172C84.0799 24.9033 84.7381 24.8046 85.3753 24.622C86.0327 24.4058 86.6583 24.1028 87.2356 23.7213C88.0517 23.1443 88.8341 22.521 89.5788 21.8545C91.537 20.2488 92.6466 18.5387 92.9207 16.7829C93.0393 16.0997 93.0961 15.4072 93.0904 14.7138C93.0951 14.0844 93.0316 13.4563 92.9012 12.8405L92.9338 12.8601ZM83.143 18.9564V17.527C83.1417 17.3083 83.1592 17.09 83.1953 16.8743C83.3429 16.7648 83.4785 16.6401 83.5999 16.5022C83.8023 16.2868 84.0307 16.0323 84.2527 15.7255C84.7161 15.1707 85.2056 14.6094 85.7147 14.0545C86.2239 13.4997 86.6742 13.0232 87.0593 12.6316C87.2943 12.3901 87.4314 12.2596 87.5162 12.1878C87.5966 12.2549 87.6729 12.3269 87.7447 12.4032C87.9796 12.6539 88.1976 12.9199 88.3974 13.1995C88.5844 13.4531 88.7503 13.7216 88.8935 14.0023C89.0973 14.441 89.2527 14.9006 89.3569 15.373C89.4549 15.8848 89.4986 16.4055 89.4875 16.9265C89.5389 18.1423 89.2924 19.3523 88.7695 20.4512C88.6637 20.6841 88.53 20.9033 88.3713 21.1039C88.2486 21.2233 88.0984 21.3107 87.934 21.3584C87.751 21.4349 87.5635 21.5003 87.3727 21.5543C87.173 21.6208 86.9676 21.6689 86.7591 21.6979C85.6318 21.9617 84.4466 21.794 83.4368 21.2279L83.13 21.0321L83.143 18.9564Z" fill="#010F0D"/>
<path d="M19.3987 6.1632C18.3328 4.60733 16.8915 3.34562 15.2083 2.49493C13.5279 1.59704 11.5912 1.29998 9.71895 1.65292C8.88342 1.83567 8.08464 2.15783 7.35611 2.60589C6.36966 3.22201 5.43728 3.92075 4.56901 4.69458L2.42158 6.48303C1.55947 7.22033 0.851813 8.12098 0.33941 9.13306C0.211151 9.38433 0.118867 9.65239 0.0652687 9.92937C0.015371 10.2313 -0.00647935 10.5372 -2.93681e-06 10.8432V10.9215C0.013869 11.9431 0.420581 12.9202 1.13572 13.6499C1.50808 14.032 1.81465 14.4731 2.043 14.9553C2.16038 15.2508 2.16038 15.5801 2.043 15.8756C1.98867 16.023 1.9429 16.1734 1.90593 16.326C1.87787 16.4035 1.86244 16.4851 1.86024 16.5675C1.85766 16.6441 1.87332 16.7201 1.90593 16.7894C1.94421 16.8597 2.00246 16.9171 2.07333 16.9542C2.1442 16.9914 2.2245 17.0067 2.30409 16.9983C2.43463 16.9983 2.54559 16.9591 3.01555 16.5936C3.3158 16.3717 3.63563 16.1041 3.9881 15.7973C4.20266 15.6105 4.39788 15.4335 4.58406 15.2646C4.7037 15.1561 4.81962 15.0509 4.93453 14.9488C5.15251 14.7579 5.34355 14.5383 5.5024 14.296C5.57761 14.1366 5.63033 13.9674 5.65905 13.7935C5.6902 13.608 5.70549 13.4202 5.70474 13.2321C5.60573 12.2968 5.16674 11.4305 4.47111 10.7975C4.34427 10.6481 4.22656 10.4911 4.11864 10.3275C3.99709 10.1574 3.89217 9.97598 3.80533 9.78577C3.71135 9.60472 3.64323 9.41137 3.60299 9.21138C3.59199 9.09851 3.59199 8.98484 3.60299 8.87197C3.59676 8.76981 3.59676 8.66736 3.60299 8.56519C3.64822 8.12176 3.77432 7.69037 3.97504 7.2924C4.17304 6.86416 4.43738 6.46986 4.7583 6.12403C5.65252 5.2463 6.84751 4.74217 8.10021 4.71416H8.37435C9.5566 4.70844 10.7259 4.96012 11.8011 5.45173C13.0063 6.00058 14.0961 6.77365 15.0125 7.72972C15.9344 8.68057 16.6539 9.80859 17.1273 11.0455C17.4717 12.0693 17.6395 13.1442 17.6233 14.2242C17.6233 14.3874 17.6233 14.877 17.5711 15.6406C17.4742 16.6575 17.2187 17.653 16.814 18.5909C16.5768 19.1228 16.311 19.6414 16.0177 20.1444C15.7643 20.6054 15.4693 21.0424 15.1365 21.4498L14.8689 21.7566L14.3598 21.4107C14.0845 21.2191 13.7991 21.0426 13.5047 20.882C13.1898 20.7165 12.865 20.5704 12.5322 20.4446C11.8938 20.2004 11.2395 19.9998 10.574 19.8441C10.041 19.6976 9.49407 19.6079 8.94221 19.5765H8.88347L9.18372 19.3024C9.37286 19.1467 9.55165 18.9788 9.71895 18.7998C9.79263 18.7384 9.85188 18.6616 9.89249 18.5747C9.93311 18.4878 9.95408 18.3931 9.95393 18.2972V18.1928C9.9156 18.0865 9.85038 17.9921 9.76464 17.9186C9.69937 17.8403 9.48397 17.4356 9.48397 15.5688C9.48397 14.7986 9.51661 13.8326 9.5884 12.7165C9.71242 11.0586 9.77769 9.73355 9.77769 8.80017C9.77769 8.4477 9.77769 7.97774 9.71895 7.38377C9.67326 6.65273 9.42523 6.20236 9.00749 6.07834C8.77072 5.94918 8.50686 5.87763 8.23728 5.86947H7.89787C7.6303 5.89487 7.37281 5.98443 7.14724 6.13056C6.92098 6.28415 6.70309 6.44974 6.49453 6.62662C6.19428 6.8616 5.87445 7.12269 5.53503 7.40336C5.19562 7.68402 4.88232 7.94511 4.64081 8.17356C4.45164 8.32293 4.28269 8.49627 4.13822 8.68921C4.07561 8.77936 4.04151 8.88623 4.04031 8.99599C4.04359 9.10401 4.08796 9.20671 4.16438 9.28313C4.2408 9.35955 4.3435 9.40392 4.45152 9.4072H4.50374C4.75424 9.40456 5.00046 9.34189 5.22173 9.22444C5.61989 9.02209 5.87445 8.91113 6.05068 9.22444C6.11451 9.56645 6.13425 9.91523 6.10943 10.2623V11.6917C6.10943 12.0604 6.09292 12.5749 6.07419 13.1584L6.07417 13.1592C6.06406 13.4742 6.0533 13.8093 6.04415 14.1524L5.87445 19.5765L5.46976 19.6614C5.27194 19.7047 5.07412 19.7596 4.85411 19.8208L4.81705 19.8311C4.58207 19.8964 4.40583 19.9682 4.24266 20.04C3.97433 20.1821 3.72071 20.3505 3.4855 20.5425C3.15262 20.7906 2.79362 21.0778 2.41505 21.3911C2.03647 21.7044 1.69706 21.9916 1.41639 22.2527C0.979072 22.6508 0.887692 22.7683 0.887692 22.9054C0.887692 23.3753 1.33807 23.5581 1.93204 23.2317C3.41371 22.579 5.40449 22.4485 7.80649 22.9445C8.66943 23.1511 9.50598 23.4555 10.2999 23.8518C10.9553 24.1475 11.5591 24.5464 12.0883 25.0332C12.1436 25.1177 12.2178 25.1883 12.305 25.2392C12.3923 25.2902 12.4901 25.3202 12.5909 25.327C12.7648 25.307 12.9297 25.2392 13.0674 25.1311L13.6809 24.6416L14.7579 23.767C15.2801 23.3231 15.8023 22.8532 16.2983 22.3767C17.3404 21.3907 18.2747 20.2967 19.0854 19.1131C19.9044 17.9247 20.5015 16.5979 20.8478 15.1968C21.0832 14.2287 21.2037 13.2363 21.2068 12.24C21.1833 11.4181 21.1092 10.5985 20.9848 9.78577C20.719 8.47943 20.1784 7.24458 19.3987 6.1632Z" fill="#010F0D"/>
<path d="M23.3999 5.32772C23.5736 5.48958 23.735 5.66412 23.8829 5.84989C24.0591 6.07182 24.2354 6.27416 24.4051 6.46344C24.5346 6.61404 24.6719 6.75783 24.8163 6.89424C24.9191 7.00503 25.0431 7.09393 25.1811 7.15562C25.319 7.21731 25.468 7.25051 25.6191 7.25323C25.8044 7.24445 25.9871 7.20702 26.1609 7.14227C26.6921 6.87322 27.1751 6.51813 27.5903 6.0914C27.7981 5.92005 27.9774 5.75684 28.1453 5.60406C28.2779 5.4833 28.4035 5.36906 28.5302 5.26245C28.9284 4.88387 28.9806 4.79249 29.0133 4.70764V4.55751C29.0133 4.42044 28.948 4.10714 28.3605 4.10714C28.2809 4.10554 28.2045 4.07543 28.1451 4.02228C27.95 3.85661 27.7708 3.67305 27.6099 3.474C27.2705 3.08237 27.0029 2.78212 26.8136 2.57978C26.6664 2.40221 26.4951 2.24621 26.3045 2.11635C26.1756 2.02448 26.0247 1.96819 25.8672 1.95317C25.6844 1.95317 25.4429 2.05108 24.7836 2.54062C24.221 2.96692 23.6827 3.42454 23.1714 3.91132L22.1924 4.77944L23.0539 5.06663C23.1798 5.13881 23.296 5.22653 23.3999 5.32772Z" fill="#010F0D"/>
<path d="M31.4138 21.1414C31.4356 21.2003 31.445 21.2631 31.4414 21.3258C31.4414 21.4955 31.3304 21.6195 30.8474 22.0699C30.5998 22.3027 30.3221 22.5279 30.0115 22.7798C29.9127 22.86 29.8106 22.9428 29.7051 23.0294C29.27 23.3906 28.8588 23.7169 28.4715 24.0085C28.205 24.2239 27.9237 24.4202 27.6295 24.5959C27.2253 24.8064 26.7794 24.9245 26.3241 24.9419C26.1031 24.945 25.883 24.9141 25.6713 24.8505C25.3384 24.7348 25.0399 24.5373 24.8032 24.2761C24.5459 24.0195 24.3437 23.713 24.2093 23.3753C24.1375 23.1404 24.0526 22.3897 24.0069 18.4734C24.0004 16.6132 23.9678 15.1772 23.909 14.2177C23.8988 13.5562 23.8067 12.8985 23.6349 12.2596C23.6045 12.1376 23.5494 12.0231 23.4731 11.9232C23.3968 11.8232 23.3008 11.74 23.191 11.6787C22.9257 11.5575 22.6301 11.5188 22.3425 11.5677H21.8595C21.6879 11.5846 21.5166 11.533 21.383 11.4241L21.2851 11.3262V11.1956C21.2851 11.0455 21.3699 10.928 21.7746 10.5429C22.0422 10.2884 22.3164 10.0338 22.7929 9.63565C23.2693 9.23749 23.6153 8.95682 23.8437 8.78059C24.0358 8.61793 24.2574 8.49383 24.4965 8.41507C24.6576 8.36834 24.8248 8.34633 24.9925 8.3498H25.1035C25.4499 8.33208 25.7956 8.3968 26.1122 8.53863C26.4288 8.68046 26.7072 8.89537 26.9246 9.16569C27.1321 9.46886 27.2764 9.81072 27.3488 10.1709C27.458 10.7919 27.5191 11.4203 27.5316 12.0507L27.5358 12.1591C27.5685 13.0067 27.6164 14.2491 27.6164 15.8626C27.5901 17.5838 27.6576 19.3052 27.8188 21.019L27.9624 21.2148C28.0338 21.3084 28.1197 21.3899 28.2169 21.4563C28.713 21.9067 29.2286 21.8023 29.9662 21.2997C30.2552 21.0575 30.6052 20.8995 30.9779 20.8428C31.0407 20.8418 31.1031 20.8538 31.1611 20.8779C31.219 20.9021 31.2714 20.938 31.3149 20.9833C31.3584 21.0286 31.3921 21.0825 31.4138 21.1414Z" fill="#010F0D"/>
<path fill-rule="evenodd" clip-rule="evenodd" d="M44.6458 15.2816C43.4357 14.9207 42.1739 14.7641 40.9123 14.8182H39.9854C40.2791 14.5506 40.6381 14.2308 41.095 13.8587C42.4005 12.7491 43.5297 11.77 44.4761 10.9346C45.0507 10.4685 45.5936 9.96481 46.1014 9.42678C46.1764 9.31668 46.2194 9.18785 46.2254 9.05473C46.2264 8.97078 46.2028 8.88837 46.1576 8.81763C46.1124 8.74689 46.0474 8.69092 45.9708 8.65657L45.8403 8.60436H45.762C45.5732 8.61997 45.3914 8.68282 45.2333 8.78712C44.6668 9.10804 44.0356 9.29764 43.3861 9.34193C42.6942 9.38762 42.2112 9.41373 41.9501 9.41373C41.073 9.41206 40.1984 9.3224 39.3392 9.14611C37.8902 8.81975 37.0743 8.78712 36.3433 9.1918C35.9186 9.46946 35.511 9.77243 35.1227 10.0991C34.594 10.5299 34.0849 10.9737 33.6149 11.4045C33.2612 11.6884 32.9512 12.0227 32.6946 12.3966C32.5179 12.7596 32.4179 13.1551 32.4009 13.5585V14.2112C32.3882 14.6802 32.4544 15.1479 32.5967 15.595C32.8425 16.1589 33.2237 16.6536 33.7065 17.035C34.1892 17.4164 34.7586 17.6728 35.3642 17.7816C35.6875 17.8416 36.0147 17.8787 36.3433 17.8925C36.5563 17.8925 36.8122 17.9093 37.1111 17.929C37.3709 17.946 37.6634 17.9652 37.9881 17.9774C39.2607 17.9799 40.5288 18.1288 41.7673 18.4212C42.0452 18.4922 42.3026 18.6272 42.519 18.8153C42.7355 19.0034 42.905 19.2395 43.014 19.5047C43.1217 19.7313 43.1796 19.9784 43.1837 20.2292C43.1841 20.4604 43.1184 20.6868 42.9944 20.882C42.8908 21.057 42.7359 21.196 42.5506 21.2801C42.1934 21.4315 41.8183 21.5368 41.4345 21.5934C41.2192 21.634 41.0008 21.6558 40.7817 21.6587H40.7165C40.39 21.638 40.0651 21.5966 39.7439 21.5347L38.7387 21.241C38.5119 21.168 38.3153 21.1002 38.1332 21.0373C38.0218 20.9989 37.9159 20.9623 37.8119 20.9276C37.1931 20.6982 36.5553 20.5234 35.9059 20.4055C35.2624 20.2556 34.6012 20.1963 33.9413 20.2292C33.7353 20.2463 33.5317 20.2857 33.3342 20.3467C33.0953 20.4289 32.874 20.5551 32.6815 20.7188C32.4596 20.8885 32.1332 21.1561 31.7024 21.5151C31.2717 21.8741 30.9779 22.1286 30.7168 22.3702C30.2926 22.7683 30.2208 22.8532 30.2208 23.0229C30.2208 23.3688 30.5276 23.6756 31.2847 23.4471C31.7315 23.3663 32.1891 23.3663 32.6358 23.4471C33.2413 23.5235 33.8366 23.6658 34.4112 23.8714C34.6593 23.9628 34.9726 24.0737 35.3511 24.1978C35.7297 24.3218 36.0822 24.4262 36.3955 24.5176C37.0395 24.734 37.7134 24.8485 38.3928 24.857C39.5039 24.8527 40.59 24.5262 41.5193 23.9171C42.0373 23.5864 42.5364 23.2268 43.014 22.8401C43.5949 22.3767 44.1628 21.8871 44.698 21.4041C45.1147 21.0362 45.5092 20.6439 45.8795 20.2292C46.2557 19.8198 46.5445 19.3378 46.728 18.8128C46.7794 18.6098 46.81 18.402 46.8194 18.1928C46.8145 17.7661 46.7118 17.3463 46.5191 16.9657C46.3428 16.5691 46.0848 16.2141 45.762 15.9239C45.4392 15.6337 45.0589 15.4149 44.6458 15.2816ZM38.6474 14.296L38.2231 14.6485H38.1774L37.8576 14.5441C37.3783 14.4457 36.9438 14.1947 36.6191 13.8288C36.2943 13.4629 36.0968 13.0017 36.0561 12.5141V12.1878C36.2262 12.215 36.3941 12.2543 36.5587 12.3053H36.6827C37.269 12.4325 37.8652 12.5089 38.4646 12.5337C38.823 12.5337 39.1209 12.5477 39.3611 12.5589L39.3619 12.5589C39.5239 12.5665 39.6597 12.5729 39.77 12.5729C40.11 12.5761 40.4499 12.5608 40.7883 12.5272L39.8157 13.2909C39.4783 13.6082 39.1602 13.8711 38.8826 14.1005C38.8005 14.1685 38.7219 14.2334 38.6474 14.296Z" fill="#010F0D"/>
<path d="M55.4352 10.9541C54.9659 11.3692 54.4564 11.7365 53.9144 12.0507C53.5436 12.268 53.1235 12.387 52.6938 12.3966L52.7656 15.4644C52.8048 17.0701 52.8635 18.3298 52.9288 19.211C52.9565 19.8319 53.0662 20.4465 53.2551 21.0386C53.3368 21.295 53.5114 21.5115 53.7447 21.6456L53.9536 21.7435H54.0319C54.1401 21.704 54.2432 21.6514 54.3387 21.5869C55.0566 21.2083 55.3373 21.4237 55.4156 21.5477L55.4744 21.6326V21.7631C55.4744 21.9589 55.383 22.1743 54.1233 23.2644C53.8974 23.4437 53.6991 23.6131 53.511 23.7738C53.3568 23.9055 53.2093 24.0315 53.0593 24.1521C52.7265 24.4197 52.5111 24.5894 52.4066 24.6612C52.1392 24.8326 51.8299 24.9275 51.5124 24.9353C51.188 24.9325 50.871 24.8374 50.5986 24.6612C50.1725 24.4097 49.8542 24.01 49.7044 23.5385C49.4594 22.767 49.3232 21.9652 49.2997 21.1561C49.2214 20.1183 49.1365 18.5452 49.1365 16.5871L49.0517 12.2204L48.3206 12.1617H47.7789C47.4954 12.1601 47.212 12.1754 46.9303 12.2074C46.6073 12.2272 46.2908 12.3068 45.9969 12.4423C45.8138 12.5436 45.5983 12.5694 45.3964 12.5141C45.2907 12.4885 45.1971 12.427 45.1316 12.3402C45.0662 12.2533 45.0329 12.1463 45.0374 12.0376C45.0374 11.8679 45.1092 11.7831 45.6053 11.3262C45.9121 11.0455 46.258 10.7322 46.6562 10.3928C47.0543 10.0534 47.4068 9.76619 47.7071 9.54427C47.864 9.43641 48.0326 9.34663 48.2097 9.27665C48.4024 9.19203 48.6037 9.12857 48.8102 9.08737L49.2018 9.00904V6.20236C49.2007 5.98321 49.1789 5.76465 49.1365 5.54964C49.1134 5.51094 49.0848 5.47577 49.0517 5.44521C48.9977 5.39611 48.936 5.35639 48.8689 5.32772C48.8109 5.30149 48.7493 5.2839 48.6861 5.2755C48.5976 5.27703 48.5114 5.30424 48.4381 5.35383C48.2415 5.47813 48.0173 5.5521 47.7854 5.56922C47.7209 5.57022 47.6568 5.55792 47.5973 5.53308C47.5377 5.50825 47.4839 5.47141 47.4392 5.42487C47.3945 5.37834 47.3599 5.32309 47.3374 5.26258C47.315 5.20207 47.3053 5.13759 47.3089 5.07316C47.3089 4.90998 47.3872 4.78596 47.8376 4.35517C48.1313 4.08103 48.4642 3.78078 48.8558 3.46095C49.2475 3.14112 49.6065 2.85392 49.9394 2.60589C50.1803 2.41624 50.446 2.26033 50.7291 2.14246C50.8615 2.10897 50.9973 2.09144 51.1338 2.09024C51.333 2.0919 51.531 2.12268 51.7213 2.18162C52.0286 2.28061 52.3006 2.46652 52.5045 2.71685C52.5905 2.82299 52.6548 2.94495 52.6938 3.07584C52.7481 3.2514 52.7766 3.43387 52.7787 3.6176V7.31198C52.7638 7.94776 52.7812 8.58389 52.8309 9.21791C52.9416 9.22869 53.0531 9.22869 53.1638 9.21791H54.8217C55.1643 9.20533 55.5052 9.16164 55.8399 9.08737C56.3817 8.89808 56.6819 8.9046 56.8581 9.08737C56.9063 9.11816 56.946 9.16063 56.9734 9.21084C57.0007 9.26105 57.015 9.31737 57.0148 9.37456C57.0186 9.47902 56.9889 9.58195 56.9299 9.66828C56.8598 9.75854 56.7787 9.83967 56.6884 9.90979C56.5971 9.99464 56.4796 10.0991 56.3099 10.2361C56.2444 10.289 56.1721 10.3477 56.0927 10.4123C55.9662 10.515 55.8214 10.6326 55.6571 10.7648L55.4352 10.9541Z" fill="#010F0D"/>
<path d="M78.2607 20.8428C77.8887 20.902 77.5394 21.0598 77.249 21.2997C76.5114 21.8023 75.9958 21.9067 75.4997 21.4563C75.4061 21.388 75.3225 21.3067 75.2517 21.2148C75.1828 21.1297 75.1416 21.0723 75.1202 21.0425C75.1072 21.0244 75.1016 21.0166 75.1016 21.019C74.9453 19.3048 74.8778 17.5837 74.8992 15.8626C74.8992 14.1786 74.8535 12.8992 74.8144 12.0507C74.8052 11.4201 74.7441 10.7914 74.6316 10.1709C74.5591 9.81072 74.4148 9.46886 74.2074 9.16569C73.99 8.89537 73.7116 8.68046 73.395 8.53863C73.0784 8.3968 72.7327 8.33208 72.3863 8.3498H72.2818C72.112 8.34637 71.9426 8.36837 71.7792 8.41507C71.5419 8.49766 71.321 8.62139 71.1265 8.78059C70.9046 8.95682 70.5521 9.23749 70.0757 9.63565C69.5992 10.0338 69.325 10.2884 69.0574 10.5429C68.3758 10.2443 67.7543 9.82407 67.2233 9.30276C66.9144 8.94799 66.488 8.71629 66.0223 8.65005C65.8461 8.65005 65.5523 8.70879 64.8474 9.18527C64.3709 9.51163 63.542 10.1317 62.3605 11.0259L61.4467 11.7439L61.3945 11.4437C61.0486 9.7205 60.4481 8.88502 59.5604 8.88502C59.3913 8.88807 59.2247 8.92584 59.0709 8.99599C58.8625 9.10155 58.6656 9.22842 58.4834 9.37456C58.2615 9.54427 57.9547 9.7923 57.5761 10.1121C57.1976 10.432 56.8581 10.7257 56.6166 10.9607C56.2446 11.3001 56.1402 11.4437 56.1402 11.6134V11.7113L56.1989 11.7961C56.2845 11.9092 56.4111 11.9842 56.5514 12.005C56.713 12.0032 56.8739 12.0275 57.0279 12.0768C57.1012 12.1126 57.1675 12.1613 57.2237 12.2204C57.5304 12.5076 57.8764 13.2909 57.8764 15.3469C57.8764 15.9996 57.8372 16.7764 57.7524 17.6314C57.674 18.6627 57.6283 19.6353 57.6283 20.5164V21.6783C57.6184 22.217 57.691 22.7541 57.8437 23.2709C57.9041 23.46 57.9897 23.64 58.0983 23.8061C58.202 23.9706 58.3199 24.1257 58.4508 24.2696C58.5867 24.4396 58.7583 24.5777 58.9534 24.6742C59.1614 24.7538 59.3836 24.7893 59.6061 24.7787C59.7971 24.7808 59.987 24.7499 60.1674 24.6873C60.3873 24.5933 60.5937 24.4704 60.781 24.3218C61.0029 24.1521 61.3488 23.8714 61.7992 23.4928C62.2496 23.1143 62.5629 22.8401 62.8436 22.5855C63.2678 22.1809 63.3592 22.0634 63.3592 21.8937C63.3592 21.4825 63.1046 21.3389 62.8892 21.3389C62.734 21.3506 62.585 21.4048 62.4585 21.4955C62.3665 21.5602 62.2576 21.5966 62.1451 21.5999C61.871 21.5999 61.6164 21.2475 61.4467 20.9472C61.3997 20.8479 61.3667 20.7424 61.3488 20.6339C61.3121 20.4182 61.2924 20.2 61.2901 19.9812V18.6758C61.2901 17.3704 61.2901 16.1236 61.3945 15.0336C61.411 14.4446 61.4721 13.8576 61.5773 13.2778L61.8971 13.0167L62.6151 12.475C62.8827 12.2792 63.1177 12.1094 63.3331 11.9724L63.4963 11.8614L63.6007 11.9397L64.1751 12.4162C65.2521 13.3561 66.1332 13.8261 66.8316 13.8783H66.91C67.0698 13.8742 67.2273 13.8387 67.3734 13.7739C67.5776 13.6707 67.7701 13.5459 67.9478 13.4018C68.1697 13.2321 68.483 12.9776 68.8812 12.6381C69.1012 12.4506 69.3032 12.271 69.4852 12.1093L69.4863 12.1084C69.6331 11.9779 69.7669 11.8589 69.8864 11.757L70.0626 11.5873C70.2124 11.5984 70.3587 11.6383 70.4934 11.7048C70.7117 11.8328 70.8711 12.0414 70.9372 12.2857C71.1024 12.9257 71.1922 13.5829 71.2048 14.2438C71.2636 15.2033 71.2962 16.6393 71.3093 18.4995C71.3484 22.4158 71.4333 23.1665 71.5116 23.4014C71.6398 23.7357 71.8353 24.0401 72.086 24.2957C72.3227 24.5569 72.6212 24.7544 72.9541 24.8701C73.1529 24.931 73.3598 24.9618 73.5677 24.9614C74.0232 24.945 74.4692 24.8268 74.8731 24.6155C75.1687 24.4387 75.4521 24.2425 75.7217 24.0281C76.1089 23.7365 76.5201 23.4101 76.9553 23.049C77.083 22.9425 77.2067 22.8418 77.3259 22.7448L77.3274 22.7436L77.328 22.7431C77.6099 22.5137 77.8667 22.3047 78.091 22.0895C78.6067 21.6391 78.685 21.5151 78.685 21.3454C78.6913 21.2843 78.6852 21.2226 78.6671 21.164C78.649 21.1053 78.6192 21.0509 78.5796 21.004C78.54 20.9571 78.4914 20.9186 78.4366 20.8909C78.3818 20.8632 78.322 20.8469 78.2607 20.8428Z" fill="#010F0D"/>
<path d="M71.1461 5.86947C71.0071 5.67622 70.8521 5.495 70.6827 5.32772C70.5827 5.223 70.4684 5.13291 70.3433 5.0601L69.4817 4.77291L70.4542 3.91132C70.9516 3.43701 71.4745 2.99032 72.0207 2.57325C72.6735 2.08372 72.9215 1.98581 73.0977 1.98581C73.2654 1.99044 73.4284 2.04249 73.5677 2.13593C73.7594 2.2668 73.9328 2.42265 74.0833 2.59936C74.2726 2.8017 74.5337 3.10195 74.8731 3.49358C75.034 3.69263 75.2132 3.87619 75.4083 4.04187C75.4683 4.09405 75.5443 4.12401 75.6237 4.12672C76.2112 4.12672 76.2765 4.44002 76.2765 4.57709V4.72722C76.2438 4.81207 76.1851 4.90345 75.7935 5.28203C75.5389 5.52353 75.2191 5.8042 74.847 6.11098C74.4317 6.53771 73.9487 6.8928 73.4176 7.16185C73.246 7.22655 73.0654 7.26399 72.8823 7.27281C72.7303 7.27022 72.5803 7.2371 72.4412 7.17544C72.3022 7.11377 72.177 7.0248 72.073 6.91382C71.9293 6.77868 71.7942 6.6348 71.6683 6.48303C71.4921 6.29374 71.3223 6.0914 71.1461 5.86947Z" fill="#010F0D"/>
<path d="M107.052 21.6848C107.186 21.6508 107.31 21.5834 107.411 21.489C108.351 20.9342 108.723 21.241 108.664 21.5738C108.658 21.7204 108.603 21.8606 108.508 21.972C108.302 22.2014 108.084 22.4193 107.855 22.6247L107.686 22.7684C107.388 23.0217 107.071 23.2918 106.726 23.5712L105.707 24.3936C105.353 24.6947 104.912 24.8733 104.448 24.9027C104.285 24.9032 104.124 24.8711 103.973 24.8083C103.823 24.7455 103.687 24.6533 103.573 24.5372C103.084 24.0672 102.836 23.2317 102.836 21.9263V21.3454C102.808 21.3747 102.777 21.4009 102.744 21.4237C102.366 21.7305 101.883 22.096 101.295 22.5268C100.708 22.9576 100.153 23.3558 99.598 23.7343C99.0432 24.1129 98.6646 24.3609 98.4427 24.4915C98.1668 24.6708 97.8587 24.795 97.5354 24.857H97.196C96.9097 24.8533 96.6289 24.777 96.3801 24.6351C95.7992 24.2761 95.388 23.5059 95.1465 22.2788C95.0375 21.0767 94.9983 19.8693 95.029 18.6627V14.5114C95.039 14.008 95.0172 13.5044 94.9637 13.0037C94.9571 12.8229 94.9079 12.6462 94.8201 12.488C94.7549 12.4208 94.6706 12.3752 94.5786 12.3575C94.4539 12.3264 94.3333 12.2804 94.2196 12.2204C94.1408 12.191 94.072 12.1398 94.0211 12.0728C93.9703 12.0058 93.9395 11.9257 93.9324 11.8418C93.9324 11.6395 94.0108 11.5677 94.435 11.1891L95.4011 10.3406C95.9167 9.92284 96.2953 9.62912 96.5694 9.44636C96.7976 9.26901 97.0715 9.16034 97.3592 9.13306H97.4375C97.5708 9.15654 97.6976 9.20757 97.81 9.28287C97.9224 9.35817 98.0179 9.45609 98.0902 9.57038C98.2919 9.81216 98.4269 10.1024 98.4819 10.4124C98.5802 10.9772 98.6304 11.5492 98.632 12.1225C98.6712 12.9123 98.6712 14.1068 98.6712 15.6863C98.6966 16.497 98.7 17.2084 98.7029 17.806V17.8073C98.7044 18.1282 98.7058 18.4162 98.7103 18.6692C98.7234 19.3938 98.756 19.9551 98.8017 20.3272C98.8155 20.5823 98.8775 20.8326 98.9845 21.0647C99.0707 21.2163 99.1809 21.353 99.3108 21.4694C99.5262 21.7109 99.8134 21.6913 100.179 21.5347C100.971 21.1397 101.708 20.6439 102.372 20.0595L102.894 19.6353L102.822 17.6771C102.672 13.7673 102.483 12.5402 102.352 12.2008C102.309 12.0865 102.25 11.9788 102.176 11.881C102.118 11.7912 102.048 11.7099 101.967 11.6395L101.373 11.1369L103.012 9.74008C103.307 9.48132 103.598 9.25948 103.849 9.06807C103.914 9.01807 103.977 8.97015 104.036 8.92419C104.415 8.60436 104.572 8.5195 104.689 8.5195H104.768C105.024 8.56054 105.257 8.69543 105.42 8.89808C105.612 9.10092 105.765 9.33776 105.871 9.59649C106.07 10.2309 106.179 10.89 106.197 11.5546C106.269 12.475 106.328 14.048 106.367 16.2281L106.367 16.2434L106.367 16.2495C106.4 17.4926 106.426 18.4907 106.458 19.2175C106.491 19.9486 106.53 20.5034 106.582 20.8558C106.595 21.081 106.648 21.3019 106.739 21.5086C106.786 21.5871 106.857 21.6487 106.941 21.6848C106.977 21.6951 107.016 21.6951 107.052 21.6848Z" fill="#010F0D"/>
<path d="M118.834 9.66828C118.893 9.58195 118.922 9.47902 118.918 9.37456C118.919 9.31737 118.904 9.26105 118.877 9.21084C118.85 9.16063 118.81 9.11816 118.762 9.08737C118.586 8.90461 118.285 8.89808 117.744 9.08737C117.409 9.16164 117.068 9.20533 116.725 9.21791H115.067C114.957 9.22869 114.845 9.22869 114.735 9.21791C114.735 9.16191 114.73 9.08189 114.724 8.96761C114.709 8.68225 114.682 8.1832 114.682 7.31198V3.6176C114.678 3.43449 114.652 3.25255 114.604 3.07584C114.56 2.94571 114.494 2.82422 114.408 2.71685C114.204 2.46652 113.932 2.28061 113.625 2.18162C113.435 2.12268 113.237 2.0919 113.037 2.09024C112.901 2.09144 112.765 2.10897 112.633 2.14246C112.365 2.2648 112.114 2.42289 111.889 2.61242C111.549 2.86045 111.19 3.14764 110.799 3.46747C110.407 3.78731 110.074 4.08756 109.78 4.3617C109.33 4.79249 109.252 4.91651 109.252 5.07969C109.248 5.14411 109.258 5.20859 109.28 5.26911C109.303 5.32962 109.337 5.38486 109.382 5.4314C109.427 5.47794 109.481 5.51478 109.54 5.53961C109.6 5.56444 109.664 5.57675 109.728 5.57575C109.96 5.55863 110.184 5.48466 110.381 5.36035C110.454 5.31077 110.54 5.28355 110.629 5.28203C110.692 5.29042 110.754 5.30801 110.812 5.33424C110.879 5.36292 110.941 5.40264 110.994 5.45173C111.028 5.48229 111.056 5.51747 111.079 5.55617C111.122 5.77118 111.144 5.98974 111.145 6.20889C111.145 6.39054 111.152 6.58382 111.16 6.78803C111.168 7.01674 111.177 7.25915 111.177 7.51432V9.01557L110.786 9.09389C110.579 9.13509 110.378 9.19856 110.185 9.28318C110.008 9.35316 109.839 9.44293 109.682 9.55079C109.382 9.77272 109.03 10.0599 108.632 10.3993C108.233 10.7387 107.888 11.052 107.581 11.3327C107.085 11.7896 107.013 11.8745 107.013 12.0442C107.008 12.1529 107.042 12.2598 107.107 12.3467C107.173 12.4336 107.266 12.4951 107.372 12.5207C107.574 12.5759 107.789 12.5501 107.972 12.4489C108.266 12.3134 108.583 12.2337 108.906 12.2139C109.187 12.1819 109.471 12.1667 109.754 12.1682H110.296L111.027 12.2269L111.112 16.5936C111.112 18.5518 111.197 20.1248 111.275 21.1626C111.299 21.9717 111.435 22.7736 111.68 23.545C111.83 24.0165 112.148 24.4163 112.574 24.6677C112.846 24.8439 113.163 24.939 113.488 24.9419C113.805 24.934 114.115 24.8392 114.382 24.6677C114.487 24.5959 114.702 24.4262 115.035 24.1586C115.368 23.891 115.72 23.5973 116.099 23.2709C117.358 22.1809 117.45 21.9655 117.45 21.7697V21.6391L117.391 21.5543C117.313 21.4302 117.032 21.2148 116.314 21.5934C116.219 21.6579 116.116 21.7105 116.007 21.7501H115.929L115.72 21.6522C115.487 21.5181 115.312 21.3015 115.231 21.0451C115.041 20.4533 114.934 19.8384 114.911 19.2175C114.839 18.3364 114.78 17.0766 114.741 15.4709L114.611 12.3966C115.037 12.3899 115.454 12.2754 115.825 12.0638C116.367 11.7495 116.876 11.3822 117.345 10.9672L117.567 10.7779C117.732 10.6456 117.876 10.528 118.003 10.4253C118.082 10.3608 118.155 10.3021 118.22 10.2492C118.362 10.1347 118.467 10.0429 118.555 9.96635L118.605 9.92284C118.691 9.84673 118.767 9.76135 118.834 9.66828Z" fill="#010F0D"/>
<path fill-rule="evenodd" clip-rule="evenodd" d="M131.555 19.9747H131.692C131.849 20.0138 131.96 20.1313 131.999 20.4055C131.991 20.5164 131.959 20.6243 131.906 20.7222C131.853 20.82 131.78 20.9056 131.692 20.9733L131.287 21.3258L131.17 21.4172C130.354 22.1528 129.481 22.8228 128.559 23.421C127.656 24.0279 126.646 24.4576 125.583 24.6873C125.236 24.7531 124.884 24.7859 124.532 24.7852C123.749 24.7772 122.976 24.6176 122.254 24.3152C121.101 23.8167 120.135 22.967 119.493 21.8871C118.961 21.0117 118.681 20.0067 118.683 18.9826C118.683 18.8837 118.691 18.7787 118.699 18.6712C118.708 18.5586 118.716 18.4434 118.716 18.3298C118.953 15.98 120.004 13.7869 121.686 12.129C122.309 11.5319 122.962 10.9676 123.644 10.4385C124.218 9.96554 124.829 9.53988 125.472 9.16569C125.983 8.95382 126.531 8.84477 127.084 8.84477C127.637 8.84477 128.185 8.95382 128.696 9.16569C128.977 9.27107 129.268 9.34761 129.564 9.39414C129.84 9.41404 130.117 9.41404 130.393 9.39414C130.489 9.39414 130.576 9.39331 130.657 9.39254C130.803 9.39115 130.928 9.38995 131.046 9.39414L131.047 9.39417C131.23 9.40071 131.607 9.41419 131.607 9.75966C131.607 9.77778 131.607 9.79404 131.606 9.81016C131.593 9.9508 131.466 10.0809 130.23 11.3458L130.026 11.5535C129.205 12.387 128.194 13.4133 127.045 14.5506C125.798 15.7842 124.708 16.8939 123.905 17.7424C123.102 18.5909 122.809 18.9238 122.704 19.0478C122.73 19.1241 122.77 19.1949 122.822 19.2567C122.936 19.4088 123.058 19.5548 123.187 19.694C123.211 19.7189 123.237 19.7409 123.266 19.7593L123.318 19.8115C123.625 20.1769 123.976 20.5035 124.362 20.7841C125.143 21.335 126.07 21.6437 127.025 21.6717H127.104C127.675 21.6706 128.241 21.5644 128.774 21.3584C129.337 21.1345 129.877 20.8569 130.387 20.5295C130.626 20.3691 130.877 20.2272 131.137 20.1052C131.263 20.0267 131.407 19.9818 131.555 19.9747ZM123.918 15.7059L125.563 14.1002L127.071 12.6838L126.503 12.5402L125.687 12.3118C125.254 12.1604 124.801 12.0724 124.343 12.0507C124.19 12.0307 124.035 12.0654 123.905 12.1486C123.677 12.3836 123.494 12.6578 123.363 12.958C123.111 13.4064 122.893 13.8734 122.711 14.3548C122.552 14.911 122.434 15.4783 122.358 16.0519C122.296 16.434 122.261 16.8201 122.254 17.2072V17.3508L122.711 16.9134L123.918 15.7059Z" fill="#010F0D"/>
</g>
<defs>
<clipPath id="clip0_755_32381">
<rect width="132" height="26" fill="white"/>
</clipPath>
</defs>
</svg>
