<svg width="28" height="29" viewBox="0 0 28 29" fill="none" xmlns="http://www.w3.org/2000/svg">
<path fill-rule="evenodd" clip-rule="evenodd" d="M13.6957 2.8335C19.9607 2.8335 25.0567 7.9295 25.0567 14.1945C25.0567 17.1503 23.9223 19.8462 22.0661 21.8694L25.7186 25.5143C26.0605 25.8561 26.0616 26.4091 25.7198 26.751C25.5495 26.9236 25.3243 27.0088 25.1003 27.0088C24.8775 27.0088 24.6535 26.9236 24.482 26.7533L20.7853 23.067C18.8407 24.6243 16.3751 25.5567 13.6957 25.5567C7.43066 25.5567 2.3335 20.4595 2.3335 14.1945C2.3335 7.9295 7.43066 2.8335 13.6957 2.8335ZM13.6957 4.5835C8.3955 4.5835 4.0835 8.89433 4.0835 14.1945C4.0835 19.4947 8.3955 23.8067 13.6957 23.8067C18.9947 23.8067 23.3067 19.4947 23.3067 14.1945C23.3067 8.89433 18.9947 4.5835 13.6957 4.5835Z" fill="#0B2462"/>
</svg>
