<?xml version="1.0"?>
<svg xmlns="http://www.w3.org/2000/svg" id="Layer_5" enable-background="new 0 0 64 64" height="512px" viewBox="0 0 64 64" width="512px"><g><SCRIPT xmlns="" id="allow-copy_script" class="active-path" style="">(function agent() {
    let isUnlockingCached = false
    const isUnlocking = () =&gt; isUnlockingCached
    document.addEventListener('allow_copy', event =&gt; {
      const { unlock } = event.detail
      isUnlockingCached = unlock
    })

    const copyEvents = [
      'copy',
      'cut',
      'contextmenu',
      'selectstart',
      'mousedown',
      'mouseup',
      'mousemove',
      'keydown',
      'keypress',
      'keyup',
    ]
    const rejectOtherHandlers = e =&gt; {
      if (isUnlocking()) {
        e.stopPropagation()
        if (e.stopImmediatePropagation) e.stopImmediatePropagation()
      }
    }
    copyEvents.forEach(evt =&gt; {
      document.documentElement.addEventListener(evt, rejectOtherHandlers, {
        capture: true,
      })
    })
  })()</SCRIPT><path d="m58.864 16c2.463-1.365 4.136-3.99 4.136-7 0-4.411-3.589-8-8-8s-8 3.589-8 8c0 3.089 1.763 5.77 4.333 7.102l-8.333 3.125v-3.227h-4v-5c0-2.206-1.794-4-4-4s-4 1.794-4 4v5h-8v3.977l-10.333-3.875c2.288-1.186 3.93-3.441 4.264-6.102h3.069c1.654 0 3-1.346 3-3s-1.346-3-3-3h-4.773c-1.514-1.881-3.797-3-6.227-3-4.411 0-8 3.589-8 8 0 3.01 1.673 5.635 4.136 7-2.463 1.366-4.136 3.991-4.136 7.002v35.998c0 2.206 1.794 4 4 4 1.2 0 2.266-.542 3-1.382.734.84 1.8 1.382 3 1.382 2.206 0 4-1.794 4-4v-33.478l8 3v7.478h20v-8.228l6-2.25v33.478c0 2.206 1.794 4 4 4 1.2 0 2.266-.542 3-1.382.734.84 1.8 1.382 3 1.382 2.206 0 4-1.794 4-4v-35.998c0-3.011-1.673-5.636-4.136-7.002zm-3.864-13c3.309 0 6 2.691 6 6 0 1.354-.456 2.601-1.216 3.606l-1.815-3.175c-.832-1.457-2.167-2.551-3.758-3.082-.696-.231-1.42-.349-2.154-.349h-2.245c1.039-1.79 2.973-3 5.188-3zm-6 6c0-.341.035-.674.09-1h2.967c.518 0 1.03.083 1.521.247 1.124.375 2.066 1.147 2.654 2.176l2.052 3.591c-.943.622-2.071.986-3.284.986-3.309 0-6-2.691-6-6zm-8 9v1.977l-2 .75v-2.727zm-4 3.549c-1.244.721-1.985 2.047-1.987 3.451h-2.013v-10h4zm-1.459 5.451c.066.113.141.218.217.323l-.758 1.01-1-1.333zm-.541-18c1.103 0 2 .897 2 2v2h-4v-2c0-1.103.897-2 2-2zm-14-2c0 .551-.449 1-1 1h-8.382l.171-.342c.511-1.023 1.539-1.658 2.683-1.658h5.528c.551 0 1 .449 1 1zm-12-4c1.375 0 2.685.481 3.737 1.319-1.17.431-2.156 1.283-2.737 2.445l-.618 1.236h-6.292c.479-2.833 2.943-5 5.91-5zm-5.91 7h11.82c-.478 2.833-2.942 5-5.91 5s-5.431-2.167-5.91-5zm9.91 49c0 1.103-.897 2-2 2s-2-.897-2-2v-3-14.859c0-1.005.5-1.938 1.336-2.496l1.219-.812-1.109-1.664-1.219.811c-1.394.93-2.227 2.486-2.227 4.161v14.859 3c0 1.103-.897 2-2 2s-2-.897-2-2v-35.998c0-3.31 2.692-6.002 6.002-6.002.238 0 .473.042.693.124l16.007 6.002c1.033.388 1.558 1.543 1.171 2.575-.376 1-1.572 1.544-2.569 1.173l-16.006-6.002-.702 1.873 5.404 2.027zm28-25h-16v-5c1.657 0 3.162-1.043 3.746-2.596.774-2.064-.276-4.374-2.341-5.15l-1.405-.527v-2.727h6v8.333l4 5.333 2.293-3.057c.525.25 1.105.391 1.707.391.477 0 .946-.084 1.398-.252l.602-.226zm20 25c0 1.103-.897 2-2 2s-2-.897-2-2v-3-14.859c0-1.675-.833-3.23-2.227-4.16l-1.219-.812-1.109 1.664 1.219.812c.836.557 1.336 1.491 1.336 2.496v14.859 3c0 1.103-.897 2-2 2s-2-.897-2-2v-34.228l5.404-2.027-.702-1.873-16.003 6.001c-1.011.375-2.197-.172-2.572-1.172-.387-1.032.138-2.187 1.17-2.575l16.004-6.002c.224-.082.459-.124.697-.124 3.31 0 6.002 2.692 6.002 6.002z" data-original="#000000" class="active-path" fill="#73BF45"/><path d="m40 41h-20c-1.654 0-3 1.346-3 3v16c0 1.654 1.346 3 3 3h20c1.654 0 3-1.346 3-3v-16c0-1.654-1.346-3-3-3zm-13 2h6v4h-6zm14 17c0 .552-.449 1-1 1h-20c-.551 0-1-.448-1-1v-16c0-.552.449-1 1-1h5v6h10v-6h5c.551 0 1 .448 1 1z" data-original="#000000" class="active-path" fill="#73BF45"/><path d="m29 57h2v2h-2z" data-original="#000000" class="active-path" fill="#73BF45"/><path d="m37 57h2v2h-2z" data-original="#000000" class="active-path" fill="#73BF45"/><path d="m33 57h2v2h-2z" data-original="#000000" class="active-path" fill="#73BF45"/></g> </svg>
