<svg width="48" height="48" viewBox="0 0 48 48" fill="none" xmlns="http://www.w3.org/2000/svg">
<g clip-path="url(#clip0_78_1520)">
<path d="M39.9973 41.6983H39.9424C39.8477 41.691 39.7554 41.664 39.6716 41.6192C39.5878 41.5743 39.5142 41.5125 39.4556 41.4377L34.7722 35.4446C34.6695 35.3129 34.6185 35.1483 34.6286 34.9817C34.6387 34.815 34.7093 34.6578 34.827 34.5394C37.1354 32.2077 38.6125 29.1812 39.0304 25.9269C39.0522 25.7609 39.1339 25.6086 39.2603 25.4987C39.3866 25.3888 39.5487 25.3289 39.7162 25.3303H47.3139C47.409 25.3297 47.5033 25.3488 47.5907 25.3866C47.678 25.4244 47.7566 25.4799 47.8213 25.5497C47.8837 25.6179 47.9316 25.698 47.9623 25.7852C47.9929 25.8724 48.0056 25.9649 47.9996 26.0572C47.4772 31.963 44.7908 37.4675 40.4567 41.5132C40.332 41.63 40.1682 41.696 39.9973 41.6983ZM36.219 35.0606L40.0727 39.9909C43.6597 36.4117 45.9416 31.732 46.5527 26.7017H40.3059C39.7824 29.8252 38.3625 32.7292 36.219 35.0606ZM47.3139 22.5737H39.7162C39.5487 22.5751 39.3866 22.5153 39.2603 22.4054C39.1339 22.2955 39.0522 22.1432 39.0304 21.9772C38.6034 18.6712 37.0933 15.5998 34.7363 13.2428C32.3792 10.8857 29.3078 9.37567 26.0019 8.94859C25.8359 8.92683 25.6836 8.84509 25.5737 8.71877C25.4638 8.59245 25.4039 8.4303 25.4053 8.26288V0.685732C25.4072 0.589008 25.4296 0.49379 25.471 0.406335C25.5124 0.31888 25.5718 0.241168 25.6453 0.178304C25.7151 0.114176 25.7975 0.0652224 25.8872 0.0345358C25.9769 0.00384919 26.072 -0.00790413 26.1664 1.80933e-05C31.7929 0.488731 37.0667 2.94597 41.0602 6.93943C45.0536 10.9329 47.5109 16.2067 47.9996 21.8332C48.0075 21.9276 47.9958 22.0227 47.9651 22.1124C47.9344 22.2021 47.8854 22.2845 47.8213 22.3543C47.7566 22.4241 47.678 22.4796 47.5907 22.5174C47.5033 22.5552 47.409 22.5744 47.3139 22.5737ZM40.3059 21.2023H46.5527C45.946 16.1734 43.6696 11.4935 40.0879 7.91174C36.5061 4.32999 31.8262 2.05356 26.7973 1.44688V7.69373C30.1713 8.26777 33.2835 9.87603 35.7035 12.2961C38.1236 14.7161 39.7318 17.8283 40.3059 21.2023Z" fill="#000719"/>
<path d="M24.0479 48C17.8596 47.9894 11.9134 45.5936 7.44639 41.3109C2.97935 37.0281 0.335276 31.1882 0.0641308 25.0057C-0.207014 18.8233 1.91565 12.7742 5.9906 8.11687C10.0656 3.4595 15.7791 0.55232 21.9428 1.80933e-05C22.0373 -0.00790413 22.1324 0.00384919 22.2221 0.0345358C22.3118 0.0652224 22.3941 0.114176 22.4639 0.178304C22.5337 0.243024 22.5893 0.321564 22.6271 0.408925C22.6648 0.496286 22.684 0.590555 22.6834 0.685732V8.2903C22.6848 8.45773 22.6249 8.61988 22.515 8.7462C22.4051 8.87251 22.2528 8.95426 22.0868 8.97602C19.8811 9.28241 17.7706 10.0733 15.9068 11.292C14.043 12.5106 12.4721 14.1268 11.3068 16.0245C10.1416 17.9221 9.41092 20.0542 9.16727 22.2677C8.92363 24.4812 9.17306 26.7212 9.89764 28.8269C10.6222 30.9326 11.804 32.8517 13.3581 34.4466C14.9123 36.0415 16.8002 37.2725 18.8865 38.0513C20.9727 38.8301 23.2055 39.1374 25.4246 38.9511C27.6436 38.7648 29.7939 38.0895 31.7211 36.9737C31.8636 36.8899 32.0316 36.8604 32.1941 36.8906C32.3567 36.9209 32.5028 37.0088 32.6057 37.1383L37.2891 43.1314C37.3478 43.2062 37.3903 43.2924 37.4139 43.3845C37.4375 43.4765 37.4417 43.5725 37.4262 43.6663C37.4129 43.7604 37.379 43.8504 37.3268 43.9298C37.2746 44.0092 37.2056 44.0761 37.1245 44.1257C33.2344 46.6596 28.6905 48.0058 24.0479 48ZM21.3051 1.44688C17.9489 1.8543 14.7263 3.00702 11.8731 4.82065C9.01989 6.63429 6.60833 9.06295 4.81489 11.9289C3.02146 14.7948 1.89154 18.0255 1.50783 21.3845C1.12412 24.7435 1.49633 28.1458 2.59723 31.3423C3.69812 34.5389 5.49984 37.4488 7.87051 39.8592C10.2412 42.2696 13.1208 44.1194 16.2987 45.2732C19.4765 46.4271 22.8721 46.8557 26.237 46.5279C29.6019 46.2 32.8509 45.1239 35.7462 43.3783L31.8925 38.448C29.7926 39.555 27.4781 40.1945 25.1078 40.3228C22.7375 40.4511 20.3675 40.0652 18.1604 39.1914C15.9533 38.3176 13.9614 36.9767 12.3212 35.2607C10.6811 33.5447 9.43158 31.4942 8.65845 29.2498C7.88531 27.0055 7.60685 24.6204 7.84216 22.2584C8.07747 19.8963 8.82099 17.6131 10.0217 15.5654C11.2224 13.5177 12.8519 11.7539 14.7983 10.3952C16.7448 9.03648 18.9621 8.11491 21.2982 7.69373L21.3051 1.44688Z" fill="#000719"/>
<path d="M18.3158 30.3702C18.2255 30.3707 18.1361 30.3535 18.0525 30.3193C17.969 30.2852 17.893 30.2349 17.8289 30.1714C17.7646 30.1076 17.7136 30.0318 17.6788 29.9482C17.644 29.8647 17.6261 29.775 17.6261 29.6845C17.6261 29.594 17.644 29.5044 17.6788 29.4208C17.7136 29.3372 17.7646 29.2614 17.8289 29.1977L29.1981 17.8285C29.3272 17.6994 29.5023 17.6268 29.6849 17.6268C29.8675 17.6268 30.0427 17.6994 30.1718 17.8285C30.3009 17.9576 30.3734 18.1328 30.3734 18.3154C30.3734 18.498 30.3009 18.6731 30.1718 18.8022L18.8026 30.1714C18.7386 30.2349 18.6626 30.2852 18.579 30.3193C18.4955 30.3535 18.406 30.3707 18.3158 30.3702ZM19.8312 23.4582C19.2325 23.4617 18.6423 23.317 18.1132 23.0369C17.584 22.7569 17.1325 22.3502 16.7987 21.8532C16.4649 21.3562 16.2593 20.7843 16.2003 20.1886C16.1413 19.5928 16.2306 18.9917 16.4603 18.4389C16.6901 17.886 17.0531 17.3986 17.5169 17.0202C17.9808 16.6417 18.5312 16.384 19.1189 16.2699C19.7066 16.1558 20.3134 16.189 20.8852 16.3664C21.4569 16.5439 21.9759 16.86 22.3958 17.2868C22.8959 17.7951 23.2351 18.4396 23.371 19.1397C23.5069 19.8397 23.4334 20.5643 23.1598 21.2229C22.8861 21.8814 22.4244 22.4446 21.8324 22.8422C21.2404 23.2398 20.5443 23.4541 19.8312 23.4582ZM19.8312 17.5817C19.3863 17.5834 18.9518 17.7166 18.5824 17.9646C18.213 18.2126 17.9252 18.5643 17.7552 18.9755C17.5851 19.3866 17.5405 19.8389 17.6268 20.2754C17.7131 20.7118 17.9266 21.113 18.2403 21.4285C18.6701 21.8381 19.241 22.0666 19.8346 22.0666C20.4283 22.0666 20.9992 21.8381 21.4289 21.4285C21.7431 21.1126 21.9567 20.7108 22.0428 20.2737C22.1289 19.8366 22.0837 19.3838 21.9128 18.9723C21.7419 18.5609 21.453 18.2093 21.0826 17.9618C20.7121 17.7143 20.2767 17.582 19.8312 17.5817ZM28.1695 31.7897C27.5705 31.7943 26.9798 31.6505 26.4499 31.3712C25.9201 31.0919 25.4676 30.6857 25.133 30.1889C24.7984 29.6922 24.592 29.1203 24.5322 28.5243C24.4724 27.9283 24.5612 27.3268 24.7905 26.7735C25.0198 26.2202 25.3826 25.7323 25.8464 25.3533C26.3102 24.9743 26.8607 24.7161 27.4486 24.6017C28.0365 24.4873 28.6437 24.5202 29.2158 24.6976C29.7879 24.875 30.3071 25.1913 30.7272 25.6182C31.227 26.1261 31.566 26.77 31.7022 27.4694C31.8383 28.1689 31.7654 28.8929 31.4926 29.5512C31.2197 30.2094 30.7591 30.7727 30.1681 31.1708C29.5772 31.5689 28.882 31.7842 28.1695 31.7897ZM28.1695 25.9131C27.724 25.9135 27.2886 26.0457 26.9181 26.2932C26.5477 26.5407 26.2588 26.8923 26.0879 27.3038C25.917 27.7152 25.8718 28.168 25.9579 28.6051C26.044 29.0422 26.2576 29.4441 26.5718 29.7599C27.0015 30.1695 27.5724 30.398 28.1661 30.398C28.7597 30.398 29.3306 30.1695 29.7603 29.7599C30.1812 29.3361 30.4173 28.763 30.4173 28.1657C30.4173 27.5683 30.1812 26.9953 29.7603 26.5714C29.5516 26.3622 29.3036 26.1964 29.0306 26.0835C28.7576 25.9705 28.465 25.9126 28.1695 25.9131Z" fill="#000719"/>
</g>
<defs>
<clipPath id="clip0_78_1520">
<rect width="48" height="48" fill="white"/>
</clipPath>
</defs>
</svg>
